<svg width="25" height="24" viewBox="0 0 25 24" fill="none" xmlns="http://www.w3.org/2000/svg">
<path d="M12.5 23.5C14.7745 23.5 16.9979 22.8255 18.8891 21.5619C20.7802 20.2983 22.2542 18.5022 23.1246 16.4009C23.995 14.2995 24.2228 11.9872 23.779 9.75647C23.3353 7.52568 22.24 5.47658 20.6317 3.86828C19.0234 2.25997 16.9743 1.1647 14.7435 0.720974C12.5128 0.277244 10.2005 0.504983 8.09914 1.37539C5.99779 2.2458 4.20174 3.71978 2.9381 5.61095C1.67446 7.50211 1 9.72552 1 12C1.00344 15.0489 2.21615 17.972 4.37207 20.1279C6.528 22.2839 9.45107 23.4966 12.5 23.5ZM6.5 11H11.25C11.3163 11 11.3799 10.9737 11.4268 10.9268C11.4737 10.8799 11.5 10.8163 11.5 10.75V6.00001C11.5 5.73479 11.6054 5.48043 11.7929 5.2929C11.9804 5.10536 12.2348 5.00001 12.5 5.00001C12.7652 5.00001 13.0196 5.10536 13.2071 5.2929C13.3946 5.48043 13.5 5.73479 13.5 6.00001V10.75C13.5 10.8163 13.5263 10.8799 13.5732 10.9268C13.6201 10.9737 13.6837 11 13.75 11H18.5C18.7652 11 19.0196 11.1054 19.2071 11.2929C19.3946 11.4804 19.5 11.7348 19.5 12C19.5 12.2652 19.3946 12.5196 19.2071 12.7071C19.0196 12.8946 18.7652 13 18.5 13H13.75C13.6837 13 13.6201 13.0263 13.5732 13.0732C13.5263 13.1201 13.5 13.1837 13.5 13.25V18C13.5 18.2652 13.3946 18.5196 13.2071 18.7071C13.0196 18.8946 12.7652 19 12.5 19C12.2348 19 11.9804 18.8946 11.7929 18.7071C11.6054 18.5196 11.5 18.2652 11.5 18V13.25C11.5 13.1837 11.4737 13.1201 11.4268 13.0732C11.3799 13.0263 11.3163 13 11.25 13H6.5C6.23478 13 5.98043 12.8946 5.79289 12.7071C5.60536 12.5196 5.5 12.2652 5.5 12C5.5 11.7348 5.60536 11.4804 5.79289 11.2929C5.98043 11.1054 6.23478 11 6.5 11Z" fill="#33E6B1"/>
</svg>
