<svg width="17" height="17" viewBox="0 0 17 17" fill="none" xmlns="http://www.w3.org/2000/svg">
<g clip-path="url(#clip0_1151_8754)">
<path d="M16.6521 2.50421C16.6505 0.193547 9.76847 0.131618 8.9838 0.132158C8.19914 0.132698 1.31718 0.204103 1.31878 2.51477C1.32226 2.59377 1.33145 2.67241 1.34627 2.75008C1.92169 6.74969 2.93693 13.3937 3.44278 14.136C3.94862 14.8783 5.35282 16.1347 8.99482 16.1322C12.6368 16.1296 14.0353 14.874 14.5441 14.1283C15.0529 13.3827 16.055 6.73996 16.6249 2.73957C16.6396 2.66187 16.6487 2.58322 16.6521 2.50421ZM8.98472 1.46549C12.4667 1.46309 14.7365 2.08887 15.2521 2.50518C14.7377 2.9222 12.4695 3.55243 8.98616 3.55482C5.50283 3.55722 3.23439 2.93012 2.71877 2.51381C3.23382 2.09678 5.50272 1.46789 8.98472 1.46549ZM6.04797 12.9642C6.02932 12.9652 6.01062 12.9652 5.99197 12.9642C5.86899 12.9642 5.75031 12.9189 5.65863 12.837C5.56695 12.755 5.50869 12.6421 5.495 12.5199L4.8242 6.52036C4.81395 6.3908 4.85448 6.26232 4.93722 6.1621C5.01997 6.06188 5.13844 5.99776 5.2676 5.9833C5.39676 5.96884 5.52648 6.00517 5.62934 6.08461C5.7322 6.16406 5.80014 6.28038 5.81879 6.40901L6.48959 12.4085C6.49733 12.4741 6.49202 12.5405 6.47398 12.6039C6.45594 12.6674 6.42552 12.7267 6.38447 12.7783C6.34342 12.83 6.29255 12.873 6.2348 12.9049C6.17704 12.9368 6.11355 12.9569 6.04797 12.9642ZM9.49252 12.7985C9.49261 12.9311 9.44002 13.0583 9.34632 13.1521C9.25262 13.246 9.12548 13.2987 8.99287 13.2988C8.86026 13.2989 8.73305 13.2463 8.63921 13.1526C8.54538 13.0589 8.49261 12.9318 8.49252 12.7992L8.48839 6.79917C8.4883 6.66656 8.54089 6.53935 8.6346 6.44551C8.7283 6.35168 8.85544 6.29892 8.98805 6.29882C9.12066 6.29873 9.24787 6.35132 9.3417 6.44503C9.43554 6.53873 9.4883 6.66587 9.48839 6.79848L9.49252 12.7985ZM12.4923 12.5184C12.4788 12.6406 12.4207 12.7536 12.3291 12.8357C12.2376 12.9178 12.119 12.9633 11.996 12.9634C11.9773 12.9644 11.9586 12.9644 11.94 12.9635C11.8747 12.9563 11.8115 12.9363 11.7539 12.9047C11.6964 12.8731 11.6456 12.8305 11.6045 12.7792C11.5634 12.728 11.5328 12.6692 11.5145 12.6061C11.4962 12.5431 11.4904 12.477 11.4976 12.4118L12.1601 6.41131C12.1786 6.28266 12.2464 6.16624 12.3491 6.08665C12.4519 6.00707 12.5816 5.97056 12.7107 5.98484C12.8399 5.99912 12.9585 6.06308 13.0414 6.16319C13.1242 6.2633 13.1649 6.39171 13.1549 6.52129L12.4923 12.5184Z" fill="#222222"/>
</g>
<defs>
<clipPath id="clip0_1151_8754">
<rect width="16" height="16" fill="white" transform="translate(0.983887 0.137665) rotate(-0.0394413)"/>
</clipPath>
</defs>
</svg>
