<svg width="8" height="8" viewBox="0 0 8 8" fill="none" xmlns="http://www.w3.org/2000/svg">
<path d="M3.89132 7.09626L7.87085 1.62567C7.92024 1.56375 7.95672 1.49232 7.97809 1.4157C7.99946 1.33909 8.00528 1.25888 7.99519 1.17993C7.98509 1.10098 7.9593 1.02491 7.91937 0.956341C7.87944 0.887768 7.8262 0.828109 7.76287 0.780968C7.69954 0.733827 7.62742 0.700184 7.55089 0.682071C7.47436 0.663958 7.395 0.661751 7.31761 0.675585C7.24021 0.689418 7.16638 0.719004 7.10059 0.762554C7.0348 0.806105 6.97841 0.862717 6.93483 0.928967L3.3146 5.90603L0.944909 3.98552C0.824486 3.8879 0.670713 3.84274 0.517418 3.85997C0.364123 3.8772 0.223863 3.95541 0.127494 4.07739C0.0311246 4.19938 -0.0134597 4.35515 0.00354888 4.51044C0.0119707 4.58733 0.0352605 4.66179 0.0720884 4.72956C0.108916 4.79733 0.158561 4.8571 0.218188 4.90543L3.05996 7.20698C3.12145 7.25567 3.19191 7.29148 3.26722 7.31229C3.34252 7.33311 3.42117 7.33852 3.49856 7.32821C3.57595 7.31791 3.65054 7.29209 3.71798 7.25226C3.78541 7.21244 3.84434 7.1594 3.89132 7.09626Z" fill="white"/>
</svg>
