<svg width="24" height="24" viewBox="0 0 24 24" fill="none" xmlns="http://www.w3.org/2000/svg">
<g clip-path="url(#clip0_461_5224)">
<path d="M14.3001 12.179C14.2768 12.1558 14.2584 12.1282 14.2458 12.0979C14.2332 12.0675 14.2267 12.0349 14.2267 12.002C14.2267 11.9692 14.2332 11.9366 14.2458 11.9062C14.2584 11.8759 14.2768 11.8483 14.3001 11.825L23.5631 2.56304C23.8444 2.28138 24.0022 1.89953 24.002 1.50148C24.0017 1.10344 23.8433 0.721806 23.5616 0.440544C23.28 0.159281 22.8981 0.00142806 22.5001 0.00170936C22.102 0.00199066 21.7204 0.160384 21.4391 0.442043L12.1771 9.70004C12.1539 9.72333 12.1263 9.7418 12.0959 9.7544C12.0656 9.767 12.033 9.77349 12.0001 9.77349C11.9672 9.77349 11.9347 9.767 11.9043 9.7544C11.8739 9.7418 11.8463 9.72333 11.8231 9.70004L2.56113 0.442043C2.42186 0.302711 2.25651 0.192173 2.07453 0.116742C1.89254 0.0413108 1.69748 0.00246287 1.50048 0.00241644C1.10262 0.00232268 0.721022 0.160281 0.439627 0.441543C0.158232 0.722806 9.38099e-05 1.10433 4.17235e-08 1.50219C-9.37265e-05 1.90005 0.157865 2.28165 0.439127 2.56304L9.70013 11.825C9.72341 11.8483 9.74188 11.8759 9.75448 11.9062C9.76709 11.9366 9.77357 11.9692 9.77357 12.002C9.77357 12.0349 9.76709 12.0675 9.75448 12.0979C9.74188 12.1282 9.72341 12.1558 9.70013 12.179L0.439127 21.442C0.29986 21.5814 0.189401 21.7468 0.114055 21.9288C0.0387096 22.1108 -4.63876e-05 22.3059 4.17235e-08 22.5029C9.38099e-05 22.9008 0.158232 23.2823 0.439627 23.5635C0.57896 23.7028 0.744358 23.8133 0.92638 23.8886C1.1084 23.964 1.30348 24.0027 1.50048 24.0027C1.89834 24.0026 2.27987 23.8444 2.56113 23.563L11.8231 14.3C11.8463 14.2768 11.8739 14.2583 11.9043 14.2457C11.9347 14.2331 11.9672 14.2266 12.0001 14.2266C12.033 14.2266 12.0656 14.2331 12.0959 14.2457C12.1263 14.2583 12.1539 14.2768 12.1771 14.3L21.4391 23.563C21.7204 23.8444 22.1019 24.0026 22.4998 24.0027C22.8976 24.0028 23.2792 23.8448 23.5606 23.5635C23.842 23.2823 24.0002 22.9008 24.0003 22.5029C24.0003 22.105 23.8424 21.7234 23.5611 21.442L14.3001 12.179Z" fill="currentColor"/>
</g>
<defs>
<clipPath id="clip0_461_5224">
<rect width="24" height="24" fill="white"/>
</clipPath>
</defs>
</svg>
