<svg width="25" height="25" viewBox="0 0 25 25" fill="none" xmlns="http://www.w3.org/2000/svg">
<g clip-path="url(#clip0_1510_11298)">
<g clip-path="url(#clip1_1510_11298)">
<path d="M24.384 15.776L21.418 10.276C21.2573 9.96916 21.0164 9.71166 20.7209 9.53098C20.4254 9.35029 20.0864 9.25318 19.74 9.25H17.5C17.2348 9.25 16.9804 9.35536 16.7929 9.54289C16.6054 9.73043 16.5 9.98478 16.5 10.25C16.5 10.5152 16.6054 10.7696 16.7929 10.9571C16.9804 11.1446 17.2348 11.25 17.5 11.25H19.509C19.5541 11.25 19.5983 11.2621 19.637 11.2852C19.6758 11.3083 19.7075 11.3414 19.729 11.381L21.898 15.381C21.9186 15.4191 21.929 15.4619 21.9281 15.5052C21.9272 15.5485 21.9151 15.5908 21.8929 15.628C21.8707 15.6652 21.8392 15.696 21.8016 15.7174C21.7639 15.7388 21.7213 15.75 21.678 15.75H18C17.6022 15.75 17.2206 15.908 16.9393 16.1893C16.658 16.4706 16.5 16.8522 16.5 17.25C16.5 17.6478 16.342 18.0294 16.0607 18.3107C15.7794 18.592 15.3978 18.75 15 18.75H10C9.60218 18.75 9.22064 18.592 8.93934 18.3107C8.65804 18.0294 8.5 17.6478 8.5 17.25C8.5 16.8522 8.34196 16.4706 8.06066 16.1893C7.77936 15.908 7.39782 15.75 7 15.75H3.3C3.25703 15.7499 3.2148 15.7388 3.17739 15.7176C3.13998 15.6965 3.10866 15.666 3.08645 15.6292C3.06423 15.5924 3.05188 15.5505 3.05057 15.5076C3.04927 15.4646 3.05906 15.4221 3.079 15.384L5.163 11.384C5.18413 11.3437 5.21589 11.3098 5.25484 11.2862C5.29379 11.2626 5.33845 11.2501 5.384 11.25H7C7.26522 11.25 7.51957 11.1446 7.70711 10.9571C7.89464 10.7696 8 10.5152 8 10.25C8 9.98478 7.89464 9.73043 7.70711 9.54289C7.51957 9.35536 7.26522 9.25 7 9.25H5.236C4.89026 9.25305 4.55186 9.35003 4.257 9.53058C3.96213 9.71113 3.7219 9.96845 3.562 10.275L0.622 15.775C0.552865 15.9246 0.511525 16.0856 0.5 16.25L0.5 22.25C0.5 22.6478 0.658035 23.0294 0.93934 23.3107C1.22064 23.592 1.60218 23.75 2 23.75H23C23.3978 23.75 23.7794 23.592 24.0607 23.3107C24.342 23.0294 24.5 22.6478 24.5 22.25V16.25C24.494 16.0858 24.4545 15.9245 24.384 15.776Z" fill="#919B9B"/>
<path d="M15.853 5.216L13.1 1.55C13.0302 1.45685 12.9396 1.38125 12.8354 1.32918C12.7313 1.27711 12.6165 1.25 12.5 1.25C12.3836 1.25 12.2688 1.27711 12.1646 1.32918C12.0605 1.38125 11.9699 1.45685 11.9 1.55L9.15403 5.216C9.07046 5.32743 9.01957 5.45992 9.00706 5.59865C8.99455 5.73737 9.02092 5.87683 9.08321 6.00141C9.1455 6.12599 9.24125 6.23076 9.35973 6.30399C9.47821 6.37721 9.61474 6.416 9.75403 6.416H10.754C10.7869 6.41587 10.8195 6.42224 10.8499 6.43476C10.8802 6.44728 10.9079 6.46569 10.9311 6.48893C10.9543 6.51217 10.9728 6.53978 10.9853 6.57017C10.9978 6.60056 11.0042 6.63313 11.004 6.666V10.416C11.004 10.8138 11.1621 11.1954 11.4434 11.4767C11.7247 11.758 12.1062 11.916 12.504 11.916C12.9019 11.916 13.2834 11.758 13.5647 11.4767C13.846 11.1954 14.004 10.8138 14.004 10.416V6.667C14.0039 6.63413 14.0103 6.60156 14.0228 6.57117C14.0353 6.54078 14.0537 6.51317 14.077 6.48993C14.1002 6.46669 14.1278 6.44828 14.1582 6.43576C14.1886 6.42324 14.2212 6.41687 14.254 6.417H15.254C15.3932 6.41663 15.5295 6.37762 15.6477 6.30432C15.766 6.23101 15.8615 6.1263 15.9237 6.00186C15.986 5.87742 16.0124 5.73814 16.0001 5.59955C15.9878 5.46097 15.9372 5.32853 15.854 5.217L15.853 5.216Z" fill="#919B9B"/>
</g>
</g>
<defs>
<clipPath id="clip0_1510_11298">
<rect width="24" height="24" fill="white" transform="translate(0.5 0.5)"/>
</clipPath>
<clipPath id="clip1_1510_11298">
<rect width="24" height="24" fill="white" transform="translate(0.5 0.5)"/>
</clipPath>
</defs>
</svg>
