<svg width="12" height="12" viewBox="0 0 12 12" fill="none" xmlns="http://www.w3.org/2000/svg">
<g clip-path="url(#clip0_368_8709)">
<path d="M6 4.875C8.69239 4.875 10.875 3.86764 10.875 2.625C10.875 1.38236 8.69239 0.375 6 0.375C3.30761 0.375 1.125 1.38236 1.125 2.625C1.125 3.86764 3.30761 4.875 6 4.875Z" stroke="currentColor" stroke-linecap="round" stroke-linejoin="round"/>
<path d="M1.125 2.625C1.12561 3.72171 1.49613 4.78616 2.17663 5.64622C2.85712 6.50628 3.80783 7.11167 4.875 7.3645V10.5C4.875 10.7984 4.99353 11.0845 5.2045 11.2955C5.41548 11.5065 5.70163 11.625 6 11.625C6.29837 11.625 6.58452 11.5065 6.7955 11.2955C7.00647 11.0845 7.125 10.7984 7.125 10.5V7.3645C8.19217 7.11167 9.14288 6.50628 9.82337 5.64622C10.5039 4.78616 10.8744 3.72171 10.875 2.625" stroke="currentColor" stroke-linecap="round" stroke-linejoin="round"/>
</g>
<defs>
<clipPath id="clip0_368_8709">
<rect width="12" height="12" fill="white"/>
</clipPath>
</defs>
</svg>
