<svg width="16" height="16" viewBox="0 0 16 16" fill="none" xmlns="http://www.w3.org/2000/svg">
<path d="M5.74733 9.31866C5.71812 9.22879 5.65685 9.15282 5.57521 9.10524C5.49356 9.05765 5.39726 9.04179 5.30467 9.06066L2.26667 9.46666C2.2217 9.46782 2.17745 9.47824 2.13668 9.49726C2.09592 9.51628 2.05951 9.54349 2.02973 9.57721C1.99996 9.61093 1.97745 9.65042 1.96362 9.69323C1.94978 9.73603 1.94492 9.78123 1.94933 9.826L2.2 11.0593C2.34594 11.5085 2.65229 11.8881 3.06049 12.1256C3.46868 12.363 3.95009 12.4418 4.41267 12.3467C4.63754 12.3414 4.85891 12.2898 5.06291 12.195C5.2669 12.1003 5.44912 11.9644 5.59815 11.7959C5.74717 11.6274 5.85978 11.4299 5.92893 11.2159C5.99809 11.0018 6.02228 10.7758 6 10.552L5.74733 9.31866Z" fill="#005A3F"/>
<path d="M5.88714 2.33333C5.64514 1.13933 4.25847 0.333334 2.79047 0.529334C1.32247 0.725334 0.32847 1.852 0.571136 3.044L1.57114 7.97733C1.60022 8.06711 1.66139 8.14301 1.74295 8.19049C1.8245 8.23797 1.92071 8.2537 2.01314 8.23467L5.06647 7.82667C5.15418 7.82336 5.23705 7.7856 5.29709 7.72157C5.35712 7.65754 5.38948 7.57241 5.38714 7.48467C5.28398 6.80569 5.41443 6.11181 5.75714 5.51667C6.12542 4.86839 6.24711 4.10889 6.0998 3.378L5.88714 2.33333Z" fill="#005A3F"/>
<path d="M12.9118 12.7507L9.93711 12.1047C9.84506 12.0792 9.74695 12.0875 9.6605 12.1281C9.57405 12.1687 9.50499 12.2389 9.46578 12.326L9.06645 13.5333C8.79178 14.3667 9.39978 15.2233 10.4284 15.4467C10.8885 15.5738 11.3789 15.5322 11.811 15.3293C12.243 15.1265 12.5883 14.7758 12.7844 14.3407L13.1844 13.1333C13.1949 13.09 13.1959 13.045 13.1874 13.0013C13.1789 12.9575 13.1611 12.9161 13.1353 12.8799C13.1094 12.8436 13.0761 12.8133 13.0376 12.791C12.999 12.7687 12.9561 12.755 12.9118 12.7507Z" fill="#005A3F"/>
<path d="M13.4667 3.81333C12.0294 3.50133 10.5521 4.194 10.1681 5.36133L9.83008 6.386C9.59583 7.09107 9.62665 7.85735 9.91674 8.54133C10.1867 9.16937 10.2338 9.87087 10.0501 10.5293C10.0429 10.5717 10.0445 10.615 10.0547 10.6567C10.0649 10.6984 10.0836 10.7375 10.1095 10.7718C10.1354 10.806 10.168 10.8345 10.2054 10.8557C10.2428 10.8768 10.2841 10.8901 10.3267 10.8947L13.3121 11.5433C13.4041 11.5688 13.5022 11.5605 13.5887 11.5199C13.6751 11.4793 13.7442 11.4091 13.7834 11.322L15.3734 6.492C15.7581 5.32533 14.9041 4.126 13.4667 3.81333Z" fill="#005A3F"/>
</svg>
