<svg width="25" height="24" viewBox="0 0 25 24" fill="none" xmlns="http://www.w3.org/2000/svg">
<g clip-path="url(#clip0_839_17784)">
<path d="M14.971 8.40001L14.571 8.25901C14.5344 8.24594 14.5012 8.22448 14.4743 8.19636C14.4474 8.16823 14.4275 8.13421 14.416 8.09701C14.3414 7.77675 14.337 7.44414 14.403 7.12201C14.4133 7.08483 14.4321 7.05057 14.458 7.02201C14.8888 6.54644 15.2166 5.98689 15.4207 5.37853C15.6248 4.77017 15.7008 4.12617 15.644 3.48701C15.6806 3.04858 15.6269 2.60731 15.4863 2.19042C15.3458 1.77353 15.1212 1.38988 14.8266 1.06313C14.532 0.736382 14.1736 0.473472 13.7734 0.290624C13.3733 0.107776 12.9399 0.00887012 12.5 8.66659e-06C12.0344 -0.00111167 11.5748 0.106403 11.158 0.314009C11.1259 0.329499 11.0975 0.351682 11.0746 0.37907C11.0518 0.406458 11.0351 0.438416 11.0256 0.472799C11.0161 0.507181 11.0141 0.543193 11.0197 0.578414C11.0253 0.613636 11.0384 0.647253 11.058 0.677009C11.6129 1.50786 11.9062 2.48591 11.9 3.48501C11.9687 4.75869 11.647 6.02301 10.978 7.10901C10.9573 7.14037 10.9439 7.17601 10.9389 7.21326C10.9338 7.25051 10.9372 7.28843 10.9488 7.32418C10.9605 7.35993 10.98 7.39259 11.006 7.41975C11.032 7.4469 11.0638 7.46784 11.099 7.48101C14.099 8.60201 14.752 9.48101 14.939 9.86901C14.966 9.92484 15.0128 9.96865 15.0702 9.99194C15.1277 10.0152 15.1918 10.0163 15.25 9.99501C15.7477 9.81187 16.2627 9.67953 16.787 9.60001C16.8408 9.59187 16.8904 9.56644 16.9284 9.52755C16.9664 9.48867 16.9907 9.43846 16.9976 9.38454C17.0045 9.33061 16.9936 9.2759 16.9666 9.22871C16.9396 9.18152 16.898 9.14441 16.848 9.12301C16.3 8.89001 15.673 8.65701 14.971 8.40001Z" fill="#00E09D"/>
<path d="M13.72 10.774C13.7467 10.7547 13.7694 10.7302 13.7865 10.7021C13.8037 10.6739 13.8151 10.6426 13.82 10.61C13.8256 10.5769 13.8245 10.5431 13.8167 10.5104C13.809 10.4778 13.7948 10.4471 13.775 10.42C12.889 9.22 9.312 8.166 9.568 8.257C9.5328 8.24379 9.50104 8.22282 9.47507 8.19564C9.44909 8.16845 9.42959 8.13576 9.418 8.1C9.34102 7.7785 9.33488 7.44411 9.4 7.12C9.41024 7.08282 9.42908 7.04856 9.455 7.02C9.8858 6.54443 10.2136 5.98488 10.4177 5.37652C10.6218 4.76817 10.6978 4.12416 10.641 3.485C10.6773 3.04698 10.6235 2.60616 10.4829 2.18971C10.3424 1.77326 10.1181 1.38999 9.82385 1.06351C9.5296 0.737024 9.17161 0.474238 8.77195 0.291334C8.3723 0.108431 7.93942 0.00928424 7.5 0C7.06015 0.00861096 6.62673 0.107263 6.22648 0.289869C5.82624 0.472475 5.46765 0.735162 5.17286 1.06172C4.87807 1.38828 4.65332 1.77178 4.51248 2.18856C4.37165 2.60534 4.31771 3.04656 4.354 3.485C4.29547 4.11971 4.36893 4.75966 4.56977 5.36459C4.77061 5.96952 5.09448 6.52633 5.521 7C5.5431 7.02439 5.5601 7.05295 5.571 7.084C5.6521 7.40693 5.66301 7.74349 5.603 8.071C5.59386 8.11157 5.57471 8.14921 5.54728 8.18048C5.51986 8.21175 5.48504 8.23565 5.446 8.25L5.029 8.4C3.022 9.137 1.572 9.67 1.118 10.577C0.719149 11.5004 0.509027 12.4942 0.5 13.5C0.5 13.6326 0.552678 13.7598 0.646447 13.8536C0.740215 13.9473 0.867392 14 1 14H10.663C10.709 13.9999 10.7542 13.9871 10.7935 13.9631C10.8328 13.9392 10.8648 13.9049 10.886 13.864C11.5387 12.6001 12.5171 11.5333 13.72 10.774Z" fill="#00E09D"/>
<path d="M18 11C16.7144 11 15.4577 11.3812 14.3888 12.0954C13.3199 12.8097 12.4868 13.8248 11.9948 15.0126C11.5028 16.2003 11.3741 17.5072 11.6249 18.7681C11.8757 20.029 12.4948 21.1872 13.4038 22.0962C14.3128 23.0052 15.471 23.6243 16.7319 23.8751C17.9928 24.1259 19.2997 23.9972 20.4874 23.5052C21.6752 23.0132 22.6903 22.1801 23.4046 21.1112C24.1188 20.0423 24.5 18.7856 24.5 17.5C24.4979 15.7767 23.8124 14.1247 22.5939 12.9061C21.3753 11.6876 19.7233 11.0021 18 11ZM22.5 17.5C22.5 17.7652 22.3946 18.0196 22.2071 18.2071C22.0196 18.3946 21.7652 18.5 21.5 18.5H19.25C19.1837 18.5 19.1201 18.5263 19.0732 18.5732C19.0263 18.6201 19 18.6837 19 18.75V21C19 21.2652 18.8946 21.5196 18.7071 21.7071C18.5196 21.8946 18.2652 22 18 22C17.7348 22 17.4804 21.8946 17.2929 21.7071C17.1054 21.5196 17 21.2652 17 21V18.75C17 18.6837 16.9737 18.6201 16.9268 18.5732C16.8799 18.5263 16.8163 18.5 16.75 18.5H14.5C14.2348 18.5 13.9804 18.3946 13.7929 18.2071C13.6054 18.0196 13.5 17.7652 13.5 17.5C13.5 17.2348 13.6054 16.9804 13.7929 16.7929C13.9804 16.6054 14.2348 16.5 14.5 16.5H16.75C16.8163 16.5 16.8799 16.4737 16.9268 16.4268C16.9737 16.3799 17 16.3163 17 16.25V14C17 13.7348 17.1054 13.4804 17.2929 13.2929C17.4804 13.1054 17.7348 13 18 13C18.2652 13 18.5196 13.1054 18.7071 13.2929C18.8946 13.4804 19 13.7348 19 14V16.25C19 16.3163 19.0263 16.3799 19.0732 16.4268C19.1201 16.4737 19.1837 16.5 19.25 16.5H21.5C21.7652 16.5 22.0196 16.6054 22.2071 16.7929C22.3946 16.9804 22.5 17.2348 22.5 17.5Z" fill="#00E09D"/>
</g>
<defs>
<clipPath id="clip0_839_17784">
<rect width="24" height="24" fill="white" transform="translate(0.5)"/>
</clipPath>
</defs>
</svg>
