<svg width="20" height="18" viewBox="0 0 20 18" fill="none" xmlns="http://www.w3.org/2000/svg">
<path d="M19.9993 9.00039C19.9993 9.56973 19.5194 10.0316 18.9279 10.0316H3.74531L9.66795 15.4726C10.0976 15.866 10.113 16.5213 9.70424 16.9308C9.29549 17.343 8.61746 17.3578 8.18915 16.9657L0.332009 9.74697C0.12 9.55228 0 9.28235 0 9.00039C0 8.71843 0.12 8.4485 0.332054 8.25381L8.1892 1.03506C8.61746 0.642971 9.29549 0.657752 9.70424 1.06995C10.113 1.47815 10.0977 2.13343 9.66799 2.52823L3.74531 7.96914H18.9279C19.5194 7.96914 19.9993 8.43106 19.9993 9.00039Z" fill="#222222"/>
</svg>
