<svg width="16" height="16" viewBox="0 0 16 16" fill="none" xmlns="http://www.w3.org/2000/svg">
<g clip-path="url(#clip0_865_14065)">
<path d="M13.3333 7.66064C13.1565 7.66064 12.987 7.73088 12.8619 7.85591C12.7369 7.98093 12.6667 8.1505 12.6667 8.32731V13.994C12.6667 14.1708 12.5964 14.3404 12.4714 14.4654C12.3464 14.5904 12.1768 14.6606 12 14.6606H2C1.82319 14.6606 1.65362 14.5904 1.5286 14.4654C1.40357 14.3404 1.33333 14.1708 1.33333 13.994V2.66064C1.33333 2.48383 1.40357 2.31426 1.5286 2.18924C1.65362 2.06422 1.82319 1.99398 2 1.99398H8.66667C8.84348 1.99398 9.01305 1.92374 9.13807 1.79872C9.2631 1.67369 9.33333 1.50412 9.33333 1.32731C9.33333 1.1505 9.2631 0.980931 9.13807 0.855907C9.01305 0.730882 8.84348 0.660645 8.66667 0.660645H2C1.46957 0.660645 0.960859 0.871358 0.585786 1.24643C0.210714 1.6215 0 2.13021 0 2.66064L0 13.994C0 14.5244 0.210714 15.0331 0.585786 15.4082C0.960859 15.7833 1.46957 15.994 2 15.994H12C12.5304 15.994 13.0391 15.7833 13.4142 15.4082C13.7893 15.0331 14 14.5244 14 13.994V8.32731C14 8.1505 13.9298 7.98093 13.8047 7.85591C13.6797 7.73088 13.5101 7.66064 13.3333 7.66064Z" fill="#222222"/>
<path d="M12.5454 2.03402C12.4816 1.97402 12.3973 1.94061 12.3097 1.94061C12.2221 1.94061 12.1378 1.97402 12.074 2.03402L6.86669 7.24335C6.83468 7.27528 6.8095 7.31339 6.79269 7.35535L5.84869 9.71202C5.82452 9.77259 5.81865 9.83891 5.8318 9.90278C5.84496 9.96665 5.87655 10.0253 5.92269 10.0714C5.96969 10.116 6.0283 10.1466 6.09184 10.1595C6.15537 10.1725 6.22127 10.1674 6.28202 10.1447L8.63868 9.20002C8.68065 9.1832 8.71876 9.15803 8.75069 9.12602L13.96 3.92002C14.0225 3.85751 14.0576 3.77274 14.0576 3.68435C14.0576 3.59596 14.0225 3.51119 13.96 3.44869L12.5454 2.03402Z" fill="#222222"/>
<path d="M15.6099 0.384682C15.356 0.142126 15.0184 0.0067749 14.6673 0.0067749C14.3161 0.0067749 13.9785 0.142126 13.7246 0.384682L13.0173 1.09135C12.9548 1.15386 12.9197 1.23863 12.9197 1.32702C12.9197 1.4154 12.9548 1.50017 13.0173 1.56268L14.4306 2.97668C14.4931 3.03917 14.5779 3.07428 14.6663 3.07428C14.7547 3.07428 14.8394 3.03917 14.9019 2.97668L15.6093 2.27002C15.8592 2.01998 15.9997 1.6809 15.9997 1.32735C15.9997 0.973796 15.8592 0.634719 15.6093 0.384682H15.6099Z" fill="#222222"/>
</g>
<defs>
<clipPath id="clip0_865_14065">
<rect width="16" height="16" fill="white"/>
</clipPath>
</defs>
</svg>
