<svg width="24" height="24" viewBox="0 0 24 24" fill="none" xmlns="http://www.w3.org/2000/svg">
<g clip-path="url(#clip0_1315_24098)">
<path d="M12 0C9.74647 0.00264654 7.586 0.899029 5.99252 2.49252C4.39903 4.086 3.50265 6.24647 3.5 8.5C3.5 13.125 9.915 21.891 11.2 23.6C11.2931 23.7242 11.4139 23.825 11.5528 23.8944C11.6916 23.9639 11.8448 24 12 24C12.1552 24 12.3084 23.9639 12.4472 23.8944C12.5861 23.825 12.7069 23.7242 12.8 23.6C14.086 21.89 20.5 13.125 20.5 8.5C20.4974 6.24647 19.601 4.086 18.0075 2.49252C16.414 0.899029 14.2535 0.00264654 12 0V0ZM16.75 10.25H13.5C13.3674 10.25 13.2402 10.3027 13.1464 10.3964C13.0527 10.4902 13 10.6174 13 10.75V14C13 14.2652 12.8946 14.5196 12.7071 14.7071C12.5196 14.8946 12.2652 15 12 15C11.7348 15 11.4804 14.8946 11.2929 14.7071C11.1054 14.5196 11 14.2652 11 14V10.75C11 10.6174 10.9473 10.4902 10.8536 10.3964C10.7598 10.3027 10.6326 10.25 10.5 10.25H7.25C6.98478 10.25 6.73043 10.1446 6.54289 9.95711C6.35536 9.76957 6.25 9.51522 6.25 9.25C6.25 8.98478 6.35536 8.73043 6.54289 8.54289C6.73043 8.35536 6.98478 8.25 7.25 8.25H10.5C10.6326 8.25 10.7598 8.19732 10.8536 8.10355C10.9473 8.00979 11 7.88261 11 7.75V4.5C11 4.23478 11.1054 3.98043 11.2929 3.79289C11.4804 3.60536 11.7348 3.5 12 3.5C12.2652 3.5 12.5196 3.60536 12.7071 3.79289C12.8946 3.98043 13 4.23478 13 4.5V7.75C13 7.88261 13.0527 8.00979 13.1464 8.10355C13.2402 8.19732 13.3674 8.25 13.5 8.25H16.75C17.0152 8.25 17.2696 8.35536 17.4571 8.54289C17.6446 8.73043 17.75 8.98478 17.75 9.25C17.75 9.51522 17.6446 9.76957 17.4571 9.95711C17.2696 10.1446 17.0152 10.25 16.75 10.25Z" fill="#00E09D"/>
</g>
<defs>
<clipPath id="clip0_1315_24098">
<rect width="24" height="24" fill="white"/>
</clipPath>
</defs>
</svg>
