<svg width="24" height="24" viewBox="0 0 24 24" fill="none" xmlns="http://www.w3.org/2000/svg">
<path d="M22 -2.78339e-06H5.914C5.65119 -0.000583326 5.39089 0.0510027 5.14816 0.151765C4.90544 0.252528 4.68513 0.400463 4.5 0.586997L0.586 4.5C0.211491 4.87578 0.000832754 5.38446 0 5.915L0 22C0 22.5304 0.210714 23.0391 0.585786 23.4142C0.960859 23.7893 1.46957 24 2 24H22C22.5304 24 23.0391 23.7893 23.4142 23.4142C23.7893 23.0391 24 22.5304 24 22V2C24 1.46956 23.7893 0.960856 23.4142 0.585784C23.0391 0.210711 22.5304 -2.78339e-06 22 -2.78339e-06ZM18.5 2C18.6326 2 18.7598 2.05268 18.8536 2.14644C18.9473 2.24021 19 2.36739 19 2.5V6.5C19 6.89782 18.842 7.27935 18.5607 7.56066C18.2794 7.84196 17.8978 8 17.5 8H7.5C7.10218 8 6.72064 7.84196 6.43934 7.56066C6.15804 7.27935 6 6.89782 6 6.5V2.5C6 2.36739 6.05268 2.24021 6.14645 2.14644C6.24021 2.05268 6.36739 2 6.5 2H18.5ZM5 22C4.86739 22 4.74021 21.9473 4.64645 21.8536C4.55268 21.7598 4.5 21.6326 4.5 21.5V13.5C4.5 13.1022 4.65804 12.7206 4.93934 12.4393C5.22064 12.158 5.60218 12 6 12H19C19.3978 12 19.7794 12.158 20.0607 12.4393C20.342 12.7206 20.5 13.1022 20.5 13.5V21.5C20.5 21.6326 20.4473 21.7598 20.3536 21.8536C20.2598 21.9473 20.1326 22 20 22H5Z" fill="currentColor"/>
</svg>
