<svg width="12" height="12" viewBox="0 0 12 12" fill="none" xmlns="http://www.w3.org/2000/svg">
<path d="M11.6921 10.8095L8.42756 7.545C9.14012 6.60831 9.47029 5.43594 9.35127 4.26506C9.23225 3.09419 8.67293 2.01223 7.78647 1.23809C6.90001 0.463945 5.75259 0.0554142 4.57635 0.0951474C3.40011 0.134881 2.28288 0.619912 1.45068 1.45211C0.618477 2.28431 0.133446 3.40155 0.0937131 4.57778C0.0539799 5.75402 0.462511 6.90144 1.23665 7.7879C2.0108 8.67437 3.09276 9.23368 4.26363 9.3527C5.43451 9.47172 6.60688 9.14155 7.54356 8.429L10.8081 11.6935C10.9263 11.8088 11.0849 11.8734 11.2501 11.8734C11.4152 11.8734 11.5738 11.8088 11.6921 11.6935C11.8092 11.5762 11.875 11.4172 11.875 11.2515C11.875 11.0857 11.8092 10.9268 11.6921 10.8095ZM1.37506 4.75C1.37506 4.08248 1.573 3.42996 1.94385 2.87495C2.3147 2.31993 2.8418 1.88735 3.4585 1.6319C4.07521 1.37646 4.7538 1.30962 5.40849 1.43985C6.06318 1.57007 6.66454 1.89151 7.13655 2.36351C7.60855 2.83551 7.92999 3.43688 8.06021 4.09157C8.19044 4.74625 8.1236 5.42485 7.86815 6.04155C7.61271 6.65825 7.18013 7.18536 6.62511 7.55621C6.07009 7.92705 5.41757 8.125 4.75006 8.125C3.85528 8.12394 2.99745 7.76802 2.36474 7.13531C1.73204 6.50261 1.37612 5.64478 1.37506 4.75Z" fill="#919B9B"/>
</svg>
