<svg width="25" height="24" viewBox="0 0 25 24" fill="none" xmlns="http://www.w3.org/2000/svg">
<g clip-path="url(#clip0_486_11713)">
<path d="M1.5 4.528H23.5C23.7652 4.528 24.0196 4.42264 24.2071 4.23511C24.3946 4.04757 24.5 3.79322 24.5 3.528C24.5 3.26278 24.3946 3.00843 24.2071 2.82089C24.0196 2.63336 23.7652 2.528 23.5 2.528H1.5C1.23478 2.528 0.98043 2.63336 0.792893 2.82089C0.605357 3.00843 0.5 3.26278 0.5 3.528C0.5 3.79322 0.605357 4.04757 0.792893 4.23511C0.98043 4.42264 1.23478 4.528 1.5 4.528Z" fill="#33E6B1"/>
<path d="M23.5 19.528H1.5C1.23478 19.528 0.98043 19.6334 0.792893 19.8209C0.605357 20.0084 0.5 20.2628 0.5 20.528C0.5 20.7932 0.605357 21.0476 0.792893 21.2351C0.98043 21.4226 1.23478 21.528 1.5 21.528H23.5C23.7652 21.528 24.0196 21.4226 24.2071 21.2351C24.3946 21.0476 24.5 20.7932 24.5 20.528C24.5 20.2628 24.3946 20.0084 24.2071 19.8209C24.0196 19.6334 23.7652 19.528 23.5 19.528Z" fill="#33E6B1"/>
<path d="M6.20802 8.528V10.233C6.20801 10.2894 6.18895 10.3441 6.15391 10.3883C6.11887 10.4325 6.06993 10.4635 6.01502 10.4764C5.96011 10.4893 5.90247 10.4832 5.85146 10.4591C5.80045 10.4351 5.75906 10.3945 5.73402 10.344L4.60002 8.081C4.49945 7.87921 4.33364 7.71733 4.1295 7.62163C3.92536 7.52592 3.69487 7.50201 3.47543 7.55377C3.256 7.60554 3.06049 7.72993 2.92064 7.90678C2.78079 8.08362 2.70481 8.30254 2.70502 8.528V15.528C2.70502 15.7932 2.81037 16.0476 2.99791 16.2351C3.18545 16.4226 3.4398 16.528 3.70502 16.528C3.97023 16.528 4.22459 16.4226 4.41212 16.2351C4.59966 16.0476 4.70502 15.7932 4.70502 15.528V13.828C4.70502 13.7716 4.72409 13.7169 4.75913 13.6727C4.79416 13.6285 4.84311 13.5975 4.89802 13.5846C4.95292 13.5717 5.01056 13.5778 5.06158 13.6019C5.11259 13.6259 5.15398 13.6665 5.17902 13.717L6.31002 15.98C6.40908 16.1846 6.5749 16.3494 6.78014 16.4471C6.98538 16.5448 7.21781 16.5697 7.43909 16.5177C7.66038 16.4656 7.85732 16.3397 7.99746 16.1607C8.1376 15.9817 8.21257 15.7603 8.21002 15.533V8.533C8.21002 8.26778 8.10466 8.01343 7.91712 7.82589C7.72959 7.63835 7.47523 7.533 7.21002 7.533C6.9448 7.533 6.69045 7.63835 6.50291 7.82589C6.31537 8.01343 6.21002 8.26778 6.21002 8.533L6.20802 8.528Z" fill="#33E6B1"/>
<path d="M11.875 9.528H14.208C14.4732 9.528 14.7276 9.42264 14.9151 9.23511C15.1027 9.04757 15.208 8.79322 15.208 8.528C15.208 8.26278 15.1027 8.00843 14.9151 7.82089C14.7276 7.63336 14.4732 7.528 14.208 7.528H11.875C11.5901 7.52826 11.308 7.58466 11.0449 7.69397C10.7818 7.80327 10.5428 7.96335 10.3415 8.16505C10.1403 8.36675 9.98076 8.60613 9.87206 8.8695C9.76336 9.13287 9.70762 9.41508 9.70801 9.7V14.366C9.70854 14.9406 9.93702 15.4914 10.3433 15.8977C10.7496 16.304 11.3004 16.5325 11.875 16.533H14.208C14.4732 16.533 14.7276 16.4276 14.9151 16.2401C15.1027 16.0526 15.208 15.7982 15.208 15.533C15.208 15.2678 15.1027 15.0134 14.9151 14.8259C14.7276 14.6384 14.4732 14.533 14.208 14.533H11.875C11.8307 14.533 11.7882 14.5154 11.7569 14.4841C11.7256 14.4528 11.708 14.4103 11.708 14.366V13.278C11.708 13.2117 11.7343 13.1481 11.7812 13.1012C11.8281 13.0543 11.8917 13.028 11.958 13.028H13.042C13.3072 13.028 13.5616 12.9226 13.7491 12.7351C13.9367 12.5476 14.042 12.2932 14.042 12.028C14.042 11.7628 13.9367 11.5084 13.7491 11.3209C13.5616 11.1334 13.3072 11.028 13.042 11.028H11.958C11.8917 11.028 11.8281 11.0017 11.7812 10.9548C11.7343 10.9079 11.708 10.8443 11.708 10.778V9.7C11.7073 9.67765 11.7112 9.6554 11.7193 9.63455C11.7273 9.61371 11.7395 9.59471 11.7551 9.57867C11.7707 9.56263 11.7893 9.54988 11.8099 9.54117C11.8305 9.53247 11.8527 9.52799 11.875 9.528Z" fill="#33E6B1"/>
<path d="M20.8 8.457L20.592 11.367C20.5901 11.3942 20.5792 11.42 20.5612 11.4405C20.5431 11.4609 20.5188 11.4748 20.492 11.48C20.4655 11.4854 20.438 11.4818 20.4137 11.4699C20.3895 11.458 20.3699 11.4383 20.358 11.414C20.2656 11.259 20.1345 11.1307 19.9777 11.0416C19.8208 10.9525 19.6434 10.9056 19.463 10.9056C19.2826 10.9056 19.1052 10.9525 18.9483 11.0416C18.7915 11.1307 18.6604 11.259 18.568 11.414C18.556 11.4383 18.5363 11.4579 18.5119 11.4699C18.4876 11.4818 18.46 11.4854 18.4334 11.48C18.4069 11.4746 18.3828 11.4607 18.365 11.4402C18.3472 11.4198 18.3367 11.394 18.335 11.367L18.127 8.456C18.1216 8.32219 18.0894 8.19083 18.0323 8.06971C17.9752 7.94858 17.8943 7.84017 17.7945 7.75089C17.6947 7.66162 17.5779 7.5933 17.4512 7.54999C17.3245 7.50668 17.1904 7.48927 17.0568 7.49878C16.9232 7.50829 16.7929 7.54454 16.6736 7.60537C16.5543 7.66619 16.4484 7.75036 16.3623 7.85289C16.2761 7.95541 16.2114 8.07419 16.172 8.20218C16.1326 8.33018 16.1194 8.46478 16.133 8.598L16.633 15.598C16.6486 15.8166 16.7355 16.0241 16.8805 16.1885C17.0256 16.3529 17.2206 16.4651 17.4356 16.5078C17.6505 16.5505 17.8736 16.5214 18.0705 16.425C18.2673 16.3285 18.427 16.1701 18.525 15.974L19.239 14.544C19.2597 14.5023 19.2916 14.4671 19.3312 14.4426C19.3708 14.418 19.4164 14.405 19.463 14.405C19.5096 14.405 19.5552 14.418 19.5948 14.4426C19.6344 14.4671 19.6663 14.5023 19.687 14.544L20.402 15.975C20.4854 16.142 20.614 16.2823 20.773 16.38C20.9321 16.4778 21.1153 16.529 21.302 16.528C21.3675 16.5282 21.4329 16.5215 21.497 16.508C21.7114 16.4648 21.9057 16.3525 22.0502 16.1884C22.1947 16.0242 22.2814 15.8171 22.297 15.599L22.797 8.599C22.8063 8.46787 22.7897 8.3362 22.7482 8.21148C22.7066 8.08677 22.6409 7.97147 22.5547 7.87216C22.4686 7.77284 22.3638 7.69147 22.2462 7.63268C22.1286 7.57388 22.0006 7.53882 21.8695 7.5295C21.7384 7.52017 21.6067 7.53677 21.482 7.57833C21.3573 7.6199 21.242 7.68562 21.1427 7.77175C21.0433 7.85787 20.962 7.96272 20.9032 8.08029C20.8444 8.19787 20.8093 8.32587 20.8 8.457Z" fill="#33E6B1"/>
</g>
<defs>
<clipPath id="clip0_486_11713">
<rect width="24" height="24" fill="white" transform="translate(0.5)"/>
</clipPath>
</defs>
</svg>
