<svg width="24" height="24" viewBox="0 0 24 24" fill="none" xmlns="http://www.w3.org/2000/svg">
<g clip-path="url(#clip0_1248_9582)">
<path d="M21 0H3C2.20435 0 1.44129 0.31607 0.87868 0.87868C0.31607 1.44129 0 2.20435 0 3L0 17.5C0 18.2956 0.31607 19.0587 0.87868 19.6213C1.44129 20.1839 2.20435 20.5 3 20.5H9C9.26522 20.5 9.51957 20.3946 9.70711 20.2071C9.89464 20.0196 10 19.7652 10 19.5C10 19.2348 9.89464 18.9804 9.70711 18.7929C9.51957 18.6054 9.26522 18.5 9 18.5H3C2.73478 18.5 2.48043 18.3946 2.29289 18.2071C2.10536 18.0196 2 17.7652 2 17.5V5.251C1.99987 5.21809 2.00624 5.18547 2.01874 5.15502C2.03125 5.12458 2.04964 5.0969 2.07287 5.07358C2.0961 5.05026 2.1237 5.03175 2.1541 5.01913C2.18449 5.0065 2.21709 5 2.25 5H21.75C21.8163 5 21.8799 5.02634 21.9268 5.07322C21.9737 5.12011 22 5.1837 22 5.25V8.5C22 8.76522 22.1054 9.01957 22.2929 9.20711C22.4804 9.39464 22.7348 9.5 23 9.5C23.2652 9.5 23.5196 9.39464 23.7071 9.20711C23.8946 9.01957 24 8.76522 24 8.5V3C24 2.20435 23.6839 1.44129 23.1213 0.87868C22.5587 0.31607 21.7956 0 21 0V0ZM4.346 3C4.26258 3.15135 4.14008 3.27755 3.99128 3.36544C3.84248 3.45333 3.67282 3.4997 3.5 3.4997C3.32718 3.4997 3.15752 3.45333 3.00872 3.36544C2.85992 3.27755 2.73742 3.15135 2.654 3C2.55793 2.85054 2.50467 2.67761 2.5 2.5C2.50103 2.35865 2.5324 2.21917 2.592 2.091C2.67058 1.91567 2.798 1.76669 2.95903 1.66188C3.12006 1.55707 3.30787 1.50087 3.5 1.5C3.67249 1.50179 3.84147 1.54893 3.98996 1.6367C4.13846 1.72446 4.26125 1.84976 4.346 2C4.44221 2.14939 4.49548 2.32237 4.5 2.5C4.49533 2.67761 4.44207 2.85054 4.346 3ZM7.846 3C7.76258 3.15135 7.64008 3.27755 7.49128 3.36544C7.34247 3.45333 7.17282 3.4997 7 3.4997C6.82718 3.4997 6.65753 3.45333 6.50872 3.36544C6.35992 3.27755 6.23742 3.15135 6.154 3C6.05793 2.85054 6.00467 2.67761 6 2.5C6.00452 2.32237 6.05779 2.14939 6.154 2C6.23742 1.84865 6.35992 1.72245 6.50872 1.63456C6.65753 1.54667 6.82718 1.5003 7 1.5003C7.17282 1.5003 7.34247 1.54667 7.49128 1.63456C7.64008 1.72245 7.76258 1.84865 7.846 2C7.94221 2.14939 7.99548 2.32237 8 2.5C7.99533 2.67761 7.94207 2.85054 7.846 3ZM11.346 3C11.2626 3.15135 11.1401 3.27755 10.9913 3.36544C10.8425 3.45333 10.6728 3.4997 10.5 3.4997C10.3272 3.4997 10.1575 3.45333 10.0087 3.36544C9.85992 3.27755 9.73742 3.15135 9.654 3C9.55793 2.85054 9.50467 2.67761 9.5 2.5C9.50452 2.32237 9.55779 2.14939 9.654 2C9.73742 1.84865 9.85992 1.72245 10.0087 1.63456C10.1575 1.54667 10.3272 1.5003 10.5 1.5003C10.6728 1.5003 10.8425 1.54667 10.9913 1.63456C11.1401 1.72245 11.2626 1.84865 11.346 2C11.4422 2.14939 11.4955 2.32237 11.5 2.5C11.4953 2.67761 11.4421 2.85054 11.346 3Z" fill="#BBC9CA"/>
<path d="M20.5262 11.439L13.1231 18.8427C13.0887 18.8773 13.0616 18.9184 13.0432 18.9636L12.0258 21.5073C11.9996 21.5728 11.9932 21.6445 12.0074 21.7136C12.0216 21.7827 12.0558 21.8461 12.1057 21.8959C12.1559 21.945 12.2191 21.9786 12.2879 21.9926C12.3567 22.0067 12.4281 22.0006 12.4935 21.975L15.0341 20.9576C15.0794 20.9394 15.1206 20.9122 15.155 20.8777L22.5603 13.4747C22.6978 13.342 22.8075 13.1832 22.883 13.0076C22.9584 12.8321 22.9982 12.6433 22.9999 12.4522C23.0017 12.2611 22.9653 12.0716 22.893 11.8947C22.8207 11.7178 22.7139 11.5571 22.5789 11.4219C22.4438 11.2867 22.2832 11.1798 22.1063 11.1074C21.9295 11.0349 21.74 10.9985 21.549 11C21.3579 11.0016 21.169 11.0413 20.9935 11.1166C20.8179 11.192 20.659 11.3016 20.5262 11.439Z" fill="#BBC9CA"/>
</g>
<defs>
<clipPath id="clip0_1248_9582">
<rect width="24" height="24" fill="white"/>
</clipPath>
</defs>
</svg>
