<svg width="16" height="17" viewBox="0 0 16 17" fill="none" xmlns="http://www.w3.org/2000/svg">
<g clip-path="url(#clip0_1211_7032)">
<path d="M10.2206 10.2173C10.2256 10.3023 10.2628 10.3822 10.3248 10.4406C10.3868 10.499 10.4688 10.5315 10.5539 10.5313H12.9919C13.098 10.5313 13.2026 10.506 13.2969 10.4575C13.3913 10.4089 13.4727 10.3386 13.5343 10.2522C13.596 10.1659 13.6362 10.0661 13.6516 9.96114C13.6669 9.85616 13.657 9.74903 13.6226 9.64866C12.8597 7.54306 11.4691 5.72223 9.63861 4.432C9.61093 4.41175 9.57768 4.40053 9.5434 4.39987C9.50911 4.39921 9.47545 4.40915 9.44702 4.42833C9.41858 4.4475 9.39676 4.47498 9.38452 4.50701C9.37227 4.53905 9.37021 4.57408 9.37861 4.60733C9.83415 6.44688 10.116 8.32511 10.2206 10.2173Z" fill="#005A3F"/>
<path d="M1.75084 12.7927C1.77276 12.832 1.80244 12.8666 1.83808 12.8942C1.87373 12.9217 1.91459 12.9418 1.95822 12.9532C2.00184 12.9645 2.04731 12.9669 2.09187 12.9601C2.13644 12.9534 2.17918 12.9377 2.2175 12.914C2.48869 12.7484 2.80044 12.6612 3.11817 12.662C3.35823 12.6593 3.59598 12.7091 3.81478 12.8079C4.03358 12.9067 4.22814 13.0521 4.38484 13.234C4.75217 13.6687 5.0515 13.9767 5.55617 13.9767C6.06084 13.9767 6.36684 13.6613 6.71484 13.25C6.87437 13.0638 7.07266 12.9147 7.29583 12.8132C7.51899 12.7116 7.76165 12.66 8.00684 12.662C8.2469 12.6592 8.48467 12.709 8.70347 12.8078C8.92228 12.9066 9.11683 13.0521 9.2735 13.234C9.64084 13.6687 9.94017 13.9767 10.4455 13.9767C10.9508 13.9767 11.2562 13.6613 11.6042 13.2493C11.7675 13.074 11.9649 12.9338 12.1843 12.8375C12.4038 12.7413 12.6406 12.6909 12.8802 12.6894C13.1198 12.688 13.3572 12.7355 13.5778 12.8292C13.7983 12.9228 13.9974 13.0606 14.1628 13.234C14.2821 13.3807 14.4111 13.5192 14.5488 13.6487C14.5898 13.6856 14.6393 13.7118 14.6929 13.7249C14.7465 13.738 14.8025 13.7376 14.8559 13.7237C14.9092 13.7098 14.9584 13.6829 14.9988 13.6454C15.0392 13.6078 15.0697 13.5609 15.0875 13.5087L15.5015 12.294C15.5524 12.1924 15.5765 12.0794 15.5715 11.9658C15.5665 11.8522 15.5325 11.7418 15.4727 11.6451C15.413 11.5484 15.3295 11.4685 15.2303 11.4131C15.131 11.3577 15.0192 11.3287 14.9055 11.3287H9.5895C9.50314 11.3287 9.42012 11.2953 9.35794 11.2353C9.29577 11.1754 9.25928 11.0936 9.25617 11.0073C9.19288 7.48966 8.42201 4.02074 6.9895 0.807331C6.91523 0.650367 6.79377 0.520527 6.6421 0.435955C6.49044 0.351382 6.31614 0.316302 6.14357 0.335615C5.97099 0.354929 5.80876 0.427672 5.67954 0.543679C5.55033 0.659687 5.46058 0.813164 5.42284 0.982665C4.7055 4.21866 3.8795 6.62666 1.98617 8.62667C1.87466 8.74472 1.80004 8.89276 1.77147 9.05261C1.74289 9.21247 1.76161 9.3772 1.82533 9.52657C1.88904 9.67594 1.99497 9.80346 2.13013 9.89348C2.26529 9.9835 2.42378 10.0321 2.58617 10.0333L7.88884 10.0453C7.97388 10.0452 8.05577 10.0775 8.11774 10.1358C8.17971 10.194 8.21707 10.2738 8.22217 10.3587C8.23417 10.564 8.24417 10.772 8.25217 10.9827C8.25387 11.0275 8.24651 11.0722 8.23053 11.1141C8.21454 11.156 8.19026 11.1943 8.15913 11.2266C8.12801 11.2589 8.09068 11.2846 8.04939 11.3021C8.0081 11.3197 7.9637 11.3287 7.91884 11.3287H2.06684C1.94608 11.3287 1.82759 11.3615 1.72402 11.4236C1.62046 11.4857 1.53572 11.5748 1.47884 11.6813C1.42287 11.7834 1.39522 11.8987 1.39874 12.0151C1.40225 12.1314 1.43681 12.2448 1.49884 12.3433L1.75084 12.7927Z" fill="#005A3F"/>
<path d="M15.3333 14.9767C14.9483 14.9555 14.5734 14.8455 14.238 14.6552C13.9026 14.465 13.6157 14.1996 13.4 13.88C13.3332 13.8101 13.2526 13.7547 13.1634 13.7173C13.0742 13.6799 12.9782 13.6613 12.8815 13.6626C12.7847 13.664 12.6893 13.6853 12.6012 13.7253C12.5131 13.7652 12.4341 13.8229 12.3693 13.8947C12.1541 14.2112 11.8685 14.4735 11.5349 14.6613C11.2014 14.849 10.8289 14.9569 10.4467 14.9767C10.0616 14.9556 9.68666 14.8456 9.35123 14.6554C9.0158 14.4651 8.729 14.1997 8.51333 13.88C8.44645 13.81 8.36583 13.7546 8.27652 13.7172C8.18721 13.6797 8.09114 13.6612 7.99432 13.6626C7.8975 13.6641 7.80203 13.6855 7.71387 13.7255C7.62571 13.7656 7.54678 13.8234 7.482 13.8954C7.26668 14.2117 6.98106 14.474 6.64751 14.6616C6.31396 14.8492 5.94151 14.957 5.55933 14.9767C5.1743 14.9555 4.79939 14.8455 4.46397 14.6552C4.12856 14.465 3.84174 14.1996 3.626 13.88C3.55911 13.81 3.47849 13.7546 3.38918 13.7172C3.29988 13.6797 3.2038 13.6612 3.10699 13.6626C3.01017 13.6641 2.91469 13.6855 2.82654 13.7255C2.73838 13.7656 2.65944 13.8234 2.59467 13.8954C2.37888 14.2125 2.09244 14.4752 1.75789 14.6629C1.42333 14.8505 1.04979 14.9579 0.666667 14.9767C0.489856 14.9767 0.320286 15.0469 0.195262 15.172C0.0702379 15.297 0 15.4665 0 15.6434C0 15.8202 0.0702379 15.9897 0.195262 16.1148C0.320286 16.2398 0.489856 16.31 0.666667 16.31C1.48549 16.31 2.27707 16.0159 2.89733 15.4814C2.95718 15.4316 3.03253 15.4044 3.11033 15.4044C3.18814 15.4044 3.26349 15.4316 3.32333 15.4814C3.94384 16.0159 4.73565 16.31 5.55467 16.31C6.37369 16.31 7.16549 16.0159 7.786 15.4814C7.84585 15.4316 7.9212 15.4044 7.999 15.4044C8.0768 15.4044 8.15215 15.4316 8.212 15.4814C8.83285 16.0169 9.62544 16.3115 10.4453 16.3115C11.2652 16.3115 12.0578 16.0169 12.6787 15.4814C12.7385 15.4316 12.8139 15.4044 12.8917 15.4044C12.9695 15.4044 13.0448 15.4316 13.1047 15.4814C13.7246 16.0152 14.5153 16.3092 15.3333 16.31C15.5101 16.31 15.6797 16.2398 15.8047 16.1148C15.9298 15.9897 16 15.8202 16 15.6434C16 15.4665 15.9298 15.297 15.8047 15.172C15.6797 15.0469 15.5101 14.9767 15.3333 14.9767Z" fill="#005A3F"/>
</g>
<defs>
<clipPath id="clip0_1211_7032">
<rect width="16" height="16" fill="white" transform="translate(0 0.319336)"/>
</clipPath>
</defs>
</svg>
