<svg width="16" height="16" viewBox="0 0 16 16" fill="none" xmlns="http://www.w3.org/2000/svg">
<g clip-path="url(#clip0_1211_6803)">
<path d="M15.2907 6.41668H15.3333C15.5101 6.41668 15.6797 6.34644 15.8047 6.22141C15.9298 6.09639 16 5.92682 16 5.75001V5.08334C16 4.90653 15.9298 4.73696 15.8047 4.61194C15.6797 4.48691 15.5101 4.41668 15.3333 4.41668H14.4333C14.2782 4.41709 14.1252 4.45341 13.9864 4.52281C13.8476 4.5922 13.7268 4.69279 13.6333 4.81668C13.626 4.82622 13.616 4.83346 13.6047 4.83754C13.5933 4.84162 13.581 4.84237 13.5693 4.83971C13.5575 4.83705 13.5467 4.83108 13.5382 4.82251C13.5298 4.81395 13.5239 4.80313 13.5213 4.79134L13.2013 3.19134C13.1099 2.7383 12.8647 2.33078 12.5073 2.03775C12.1499 1.74472 11.7022 1.5842 11.24 1.58334H4.76C4.29814 1.58447 3.85084 1.74504 3.49372 2.03791C3.13659 2.33078 2.89154 2.73798 2.8 3.19068L2.48 4.79068C2.47745 4.80247 2.47158 4.81328 2.46309 4.82185C2.4546 4.83042 2.44384 4.83638 2.43207 4.83904C2.42031 4.8417 2.40803 4.84095 2.39668 4.83687C2.38533 4.83279 2.37538 4.82555 2.368 4.81601C2.27457 4.69212 2.15372 4.59154 2.01493 4.52214C1.87614 4.45275 1.72317 4.41642 1.568 4.41601H0.666667C0.489856 4.41601 0.320286 4.48625 0.195262 4.61127C0.0702379 4.7363 0 4.90587 0 5.08268L0 5.74934C0 5.92615 0.0702379 6.09572 0.195262 6.22075C0.320286 6.34577 0.489856 6.41601 0.666667 6.41601H0.709333C0.742027 6.41594 0.774018 6.42549 0.801326 6.44347C0.828633 6.46144 0.850051 6.48705 0.862912 6.51711C0.875774 6.54717 0.879511 6.58034 0.873659 6.61251C0.867807 6.64467 0.852624 6.67441 0.83 6.69801C0.298252 7.24885 0.000742801 7.98438 0 8.75001L0 11.4167C0.000779225 11.6052 0.0548298 11.7896 0.155918 11.9488C0.257006 12.1079 0.401014 12.2352 0.571333 12.316C0.59986 12.3295 0.623964 12.3509 0.640841 12.3775C0.657718 12.4042 0.666674 12.4351 0.666667 12.4667V13.4167C0.666667 13.6819 0.772024 13.9362 0.95956 14.1238C1.1471 14.3113 1.40145 14.4167 1.66667 14.4167H3C3.26522 14.4167 3.51957 14.3113 3.70711 14.1238C3.89464 13.9362 4 13.6819 4 13.4167V12.5833C4 12.5391 4.01756 12.4967 4.04882 12.4655C4.08007 12.4342 4.12246 12.4167 4.16667 12.4167H11.8333C11.8775 12.4167 11.9199 12.4342 11.9512 12.4655C11.9824 12.4967 12 12.5391 12 12.5833V13.4167C12 13.6819 12.1054 13.9362 12.2929 14.1238C12.4804 14.3113 12.7348 14.4167 13 14.4167H14.3333C14.5985 14.4167 14.8529 14.3113 15.0404 14.1238C15.228 13.9362 15.3333 13.6819 15.3333 13.4167V12.4667C15.3333 12.4351 15.3423 12.4042 15.3592 12.3775C15.376 12.3509 15.4001 12.3295 15.4287 12.316C15.599 12.2352 15.743 12.1079 15.8441 11.9488C15.9452 11.7896 15.9992 11.6052 16 11.4167V8.75001C15.9991 7.98461 15.7016 7.24936 15.17 6.69868C15.1474 6.67508 15.1322 6.64534 15.1263 6.61318C15.1205 6.58101 15.1242 6.54783 15.1371 6.51778C15.1499 6.48772 15.1714 6.46211 15.1987 6.44413C15.226 6.42616 15.258 6.41661 15.2907 6.41668ZM2.16667 11.75H1C0.911595 11.75 0.82681 11.7149 0.764298 11.6524C0.701786 11.5899 0.666667 11.5051 0.666667 11.4167V11.0833C0.666667 10.9949 0.701786 10.9102 0.764298 10.8476C0.82681 10.7851 0.911595 10.75 1 10.75H2.16667C2.29927 10.75 2.42645 10.8027 2.52022 10.8965C2.61399 10.9902 2.66667 11.1174 2.66667 11.25C2.66667 11.3826 2.61399 11.5098 2.52022 11.6036C2.42645 11.6973 2.29927 11.75 2.16667 11.75ZM3.58133 9.01668C3.56588 9.03745 3.54577 9.05431 3.52261 9.06589C3.49945 9.07747 3.47389 9.08345 3.448 9.08334H2.66667C2.34602 9.08343 2.03607 8.96796 1.79364 8.7581C1.5512 8.54823 1.39252 8.25803 1.34667 7.94068C1.34344 7.91701 1.3453 7.89293 1.35212 7.87005C1.35894 7.84716 1.37056 7.82599 1.3862 7.80794C1.40185 7.7899 1.42116 7.7754 1.44285 7.76541C1.46455 7.75542 1.48812 7.75017 1.512 7.75001H3C3.09417 7.75376 3.18479 7.78699 3.25907 7.845C3.33335 7.90301 3.38755 7.98288 3.414 8.07334L3.614 8.87334C3.62042 8.89853 3.6208 8.92488 3.61513 8.95025C3.60945 8.97562 3.59787 8.99929 3.58133 9.01934V9.01668ZM10.648 8.85268L10.2853 9.94134C10.1747 10.2732 9.96238 10.5618 9.67857 10.7663C9.39476 10.9707 9.0538 11.0807 8.704 11.0807H7.294C6.94464 11.0808 6.60408 10.9711 6.32044 10.7671C6.0368 10.5632 5.82443 10.2752 5.71333 9.94401L5.35 8.85534C5.3333 8.80521 5.32876 8.75182 5.33676 8.69958C5.34475 8.64734 5.36505 8.59775 5.39598 8.55491C5.42691 8.51206 5.46759 8.47718 5.51465 8.45315C5.56172 8.42911 5.61382 8.41661 5.66667 8.41668H10.3333C10.3862 8.41661 10.4383 8.42911 10.4853 8.45315C10.5324 8.47718 10.5731 8.51206 10.604 8.55491C10.6349 8.59775 10.6552 8.64734 10.6632 8.69958C10.6712 8.75182 10.6667 8.80521 10.65 8.85534L10.648 8.85268ZM12.2773 5.68668C12.2615 5.7056 12.2417 5.72084 12.2194 5.73132C12.197 5.7418 12.1727 5.74727 12.148 5.74734H3.85C3.82532 5.74727 3.80096 5.7418 3.77862 5.73132C3.75628 5.72084 3.7365 5.7056 3.72067 5.68668C3.70516 5.66748 3.69408 5.6451 3.6882 5.62114C3.68233 5.59717 3.6818 5.5722 3.68667 5.54801L4.106 3.45001C4.13676 3.29932 4.21868 3.16389 4.33787 3.06669C4.45706 2.96949 4.6062 2.91649 4.76 2.91668H11.24C11.3938 2.91649 11.5429 2.96949 11.6621 3.06669C11.7813 3.16389 11.8632 3.29932 11.894 3.45001L12.314 5.54801C12.319 5.57267 12.3185 5.59812 12.3125 5.62256C12.3065 5.64699 12.2952 5.6698 12.2793 5.68934L12.2773 5.68668ZM12.548 9.08068C12.5227 9.0806 12.4977 9.07478 12.4749 9.06364C12.4522 9.0525 12.4322 9.03634 12.4166 9.01637C12.401 8.9964 12.3902 8.97316 12.3849 8.94838C12.3796 8.9236 12.3799 8.89795 12.386 8.87334L12.586 8.07334C12.6125 7.98288 12.6666 7.90301 12.7409 7.845C12.8152 7.78699 12.9058 7.75376 13 7.75001H14.4853C14.5092 7.74989 14.5329 7.75496 14.5546 7.76486C14.5764 7.77475 14.5957 7.78925 14.6113 7.80734C14.6271 7.82545 14.6387 7.84673 14.6455 7.86973C14.6523 7.89274 14.654 7.91693 14.6507 7.94068C14.6049 8.25758 14.4466 8.54742 14.2047 8.75723C13.9628 8.96703 13.6535 9.08279 13.3333 9.08334L12.548 9.08068ZM15.3313 11.0807V11.414C15.3313 11.5024 15.2962 11.5872 15.2337 11.6497C15.1712 11.7122 15.0864 11.7473 14.998 11.7473H13.8333C13.7007 11.7473 13.5735 11.6947 13.4798 11.6009C13.386 11.5071 13.3333 11.38 13.3333 11.2473C13.3333 11.1147 13.386 10.9876 13.4798 10.8938C13.5735 10.8 13.7007 10.7473 13.8333 10.7473H15C15.044 10.7473 15.0876 10.7561 15.1282 10.773C15.1688 10.7899 15.2057 10.8147 15.2367 10.8459C15.2676 10.8772 15.2921 10.9142 15.3087 10.955C15.3253 10.9957 15.3337 11.0393 15.3333 11.0833L15.3313 11.0807Z" fill="#005A3F"/>
</g>
<defs>
<clipPath id="clip0_1211_6803">
<rect width="16" height="16" fill="white"/>
</clipPath>
</defs>
</svg>
