<svg width="16" height="16" viewBox="0 0 16 16" fill="none" xmlns="http://www.w3.org/2000/svg">
<g clip-path="url(#clip0_1162_3558)">
<path d="M7.99984 0C6.32073 0.00194086 4.71095 0.669824 3.52364 1.85713C2.33633 3.04444 1.66844 4.65422 1.6665 6.33333C1.6665 10.698 6.02517 14.6587 7.3605 15.7687C7.54004 15.9178 7.7661 15.9995 7.9995 15.9995C8.23291 15.9995 8.45897 15.9178 8.6385 15.7687C9.97184 14.6587 14.3332 10.6967 14.3332 6.33267C14.3311 4.65367 13.6631 3.04406 12.4758 1.8569C11.2885 0.669732 9.67883 0.00194052 7.99984 0V0ZM12.1712 6.37067L6.0665 10.1627C6.00399 10.2017 5.93135 10.2213 5.85769 10.2192C5.78404 10.2171 5.71265 10.1932 5.6525 10.1507L3.4105 8.57933C3.38926 8.5623 3.37159 8.54124 3.35851 8.51736C3.34543 8.49348 3.33719 8.46725 3.33428 8.44018C3.33137 8.41311 3.33384 8.38573 3.34154 8.35961C3.34924 8.33349 3.36203 8.30916 3.37917 8.288C3.38959 8.27514 3.40145 8.26351 3.4145 8.25333L4.10184 7.67733C4.12937 7.65484 4.16225 7.63983 4.19729 7.63375C4.23232 7.62768 4.26833 7.63075 4.30184 7.64267L5.28784 8.23067C5.34437 8.26436 5.4096 8.28057 5.47533 8.27725C5.54105 8.27392 5.60433 8.25122 5.65717 8.212L6.82984 7.34533C6.87357 7.31291 6.90869 7.27027 6.93214 7.22113C6.95558 7.172 6.96664 7.11787 6.96434 7.06348C6.96203 7.00909 6.94644 6.95609 6.91893 6.90911C6.89142 6.86214 6.85282 6.82261 6.8065 6.794L4.3945 5.298C4.3684 5.27614 4.34691 5.2493 4.33128 5.21905C4.31565 5.1888 4.3062 5.15575 4.30347 5.12181C4.30073 5.08787 4.30478 5.05373 4.31538 5.02137C4.32597 4.98901 4.3429 4.95909 4.36517 4.93333C4.37745 4.91893 4.39132 4.90596 4.4065 4.89467L5.0985 4.382C5.13288 4.3565 5.17307 4.33997 5.21544 4.33392C5.25782 4.32786 5.30103 4.33247 5.34117 4.34733L9.07917 5.73933C9.12914 5.75786 9.18282 5.76415 9.23571 5.75765C9.28861 5.75115 9.33917 5.73207 9.38317 5.702L11.0452 4.56867C11.1595 4.49012 11.2888 4.43607 11.4249 4.40991C11.5611 4.38376 11.7012 4.38605 11.8365 4.41667C12.0129 4.45791 12.176 4.54311 12.3106 4.66434C12.4453 4.78556 12.547 4.93887 12.6065 5.11C12.6461 5.21946 12.6664 5.33494 12.6665 5.45133C12.6701 5.63425 12.6263 5.81498 12.5396 5.97604C12.4528 6.1371 12.3259 6.27303 12.1712 6.37067Z" fill="#005A3F"/>
</g>
<defs>
<clipPath id="clip0_1162_3558">
<rect width="16" height="16" fill="white"/>
</clipPath>
</defs>
</svg>
