<svg width="16" height="17" viewBox="0 0 16 17" fill="none" xmlns="http://www.w3.org/2000/svg">
<g clip-path="url(#clip0_1211_6957)">
<path d="M15.9505 15.213L13.3692 8.87963C13.3545 8.84121 13.3545 8.79872 13.3692 8.7603C13.7282 7.79783 13.919 6.78078 13.9332 5.75363C13.9877 4.35754 13.4974 2.99494 12.5659 1.95363C11.5285 0.861631 9.99253 0.309631 7.99986 0.309631C6.0072 0.309631 4.47053 0.861631 3.4352 1.95363C2.50321 2.99473 2.01242 4.35736 2.06653 5.75363C2.0803 6.76792 2.26651 7.77247 2.6172 8.7243C2.63151 8.76256 2.63151 8.8047 2.6172 8.84296L0.047865 15.215C-0.0182623 15.379 -0.0165005 15.5627 0.0527629 15.7255C0.122026 15.8882 0.253118 16.0168 0.417198 16.083C0.581279 16.1491 0.764908 16.1473 0.92769 16.0781C1.09047 16.0088 1.21907 15.8777 1.2852 15.7136L1.41053 15.4016C1.42302 15.3709 1.44441 15.3445 1.47197 15.326C1.49953 15.3075 1.53199 15.2976 1.5652 15.2976H14.4319C14.465 15.2976 14.4973 15.3075 14.5248 15.3261C14.5522 15.3446 14.5735 15.3709 14.5859 15.4016L14.7145 15.7156C14.7645 15.8384 14.8499 15.9435 14.9599 16.0174C15.0698 16.0914 15.1993 16.1309 15.3319 16.131C15.4181 16.1312 15.5035 16.1145 15.5832 16.0816C15.6644 16.0487 15.7383 16.0002 15.8007 15.9387C15.8631 15.8772 15.9127 15.8041 15.9469 15.7234C15.981 15.6427 15.9989 15.5561 15.9995 15.4686C16.0001 15.381 15.9835 15.2941 15.9505 15.213ZM12.0325 11.261C12.1614 11.0907 12.2845 10.9147 12.4019 10.733C12.4185 10.7075 12.4417 10.687 12.4691 10.6738C12.4965 10.6606 12.527 10.6551 12.5573 10.658C12.5876 10.6609 12.6166 10.672 12.641 10.6901C12.6654 10.7083 12.6844 10.7328 12.6959 10.761L12.9152 11.2983C12.9254 11.3237 12.9293 11.3511 12.9265 11.3783C12.9236 11.4056 12.9142 11.4316 12.8989 11.4543C12.8836 11.477 12.863 11.4956 12.8389 11.5085C12.8148 11.5214 12.7879 11.5282 12.7605 11.5283H12.1659C12.135 11.5281 12.1048 11.5193 12.0787 11.503C12.0525 11.4866 12.0313 11.4634 12.0175 11.4358C12.0037 11.4082 11.9978 11.3773 12.0005 11.3466C12.0031 11.3159 12.0142 11.2865 12.0325 11.2616V11.261ZM4.4092 4.8683C4.45418 4.7958 4.51691 4.73596 4.59144 4.69443C4.66598 4.6529 4.74987 4.63106 4.8352 4.63096H11.1685C11.2535 4.63132 11.337 4.6533 11.4112 4.69484C11.4853 4.73638 11.5476 4.7961 11.5923 4.8684C11.637 4.94069 11.6626 5.02316 11.6666 5.10805C11.6706 5.19295 11.6529 5.27746 11.6152 5.35363L11.1152 6.35363C11.0737 6.43708 11.0097 6.50727 10.9304 6.55627C10.8511 6.60528 10.7597 6.63115 10.6665 6.63096H5.3332C5.24055 6.6306 5.14982 6.60447 5.07117 6.5555C4.99253 6.50652 4.92906 6.43662 4.88786 6.35363L4.38786 5.35363C4.34987 5.27759 4.33189 5.19312 4.33563 5.1082C4.33936 5.02328 4.36468 4.94071 4.4092 4.8683ZM9.75653 11.741C9.2447 12.1089 8.63024 12.3069 7.99986 12.3069C7.36949 12.3069 6.75503 12.1089 6.2432 11.741C6.10132 11.5391 6.01758 11.3022 6.00112 11.056C5.98466 10.8099 6.03612 10.5639 6.14987 10.345C6.33386 10.0195 6.60369 9.75088 6.92992 9.56831C7.25616 9.38574 7.62626 9.29626 7.99986 9.30963C8.37329 9.29632 8.74321 9.38575 9.06931 9.5682C9.3954 9.75064 9.66517 10.0191 9.8492 10.3443C9.96303 10.5633 10.0146 10.8093 9.99824 11.0556C9.9819 11.3019 9.8983 11.5389 9.75653 11.741ZM3.06653 11.299L3.29186 10.7403C3.3031 10.7118 3.32201 10.6869 3.3465 10.6685C3.37099 10.6501 3.4001 10.6388 3.43061 10.6359C3.46112 10.633 3.49184 10.6386 3.51936 10.6521C3.54688 10.6656 3.57013 10.6864 3.58653 10.7123C3.70786 10.9012 3.83542 11.0841 3.9692 11.261C3.98751 11.2858 3.99861 11.3152 4.00126 11.3459C4.00391 11.3767 3.99801 11.4075 3.98421 11.4351C3.97041 11.4627 3.94926 11.486 3.92308 11.5023C3.8969 11.5186 3.86671 11.5274 3.83586 11.5276H3.21853C3.19121 11.5277 3.16429 11.521 3.14015 11.5082C3.11602 11.4954 3.0954 11.4768 3.08012 11.4542C3.06484 11.4315 3.05537 11.4054 3.05253 11.3783C3.0497 11.3511 3.05359 11.3236 3.06386 11.2983L3.06653 11.299ZM13.8945 13.8903C13.8793 13.913 13.8588 13.9316 13.8348 13.9445C13.8107 13.9574 13.7838 13.9642 13.7565 13.9643H2.23653C2.20929 13.9643 2.18246 13.9576 2.1584 13.9448C2.13435 13.932 2.11379 13.9135 2.09853 13.891C2.08332 13.8683 2.07386 13.8422 2.07096 13.815C2.06805 13.7878 2.0718 13.7604 2.08186 13.735L2.39253 12.9656C2.4049 12.9349 2.42617 12.9086 2.45362 12.8901C2.48106 12.8715 2.51342 12.8616 2.54653 12.8616H5.48786C5.51921 12.8616 5.54993 12.8704 5.57653 12.887C6.12495 13.2445 6.74144 13.4846 7.3872 13.5923C7.79263 13.6599 8.20644 13.6599 8.61187 13.5923C9.25759 13.4845 9.87405 13.2444 10.4225 12.887C10.4491 12.8704 10.4799 12.8616 10.5112 12.8616H13.4399C13.473 12.8615 13.5054 12.8713 13.533 12.8897C13.5605 12.9081 13.5819 12.9343 13.5945 12.965L13.9079 13.735C13.9184 13.7601 13.9224 13.7875 13.9196 13.8147C13.9168 13.8418 13.9073 13.8678 13.8919 13.8903H13.8945Z" fill="#005A3F"/>
</g>
<defs>
<clipPath id="clip0_1211_6957">
<rect width="16" height="16" fill="white" transform="translate(0 0.220276)"/>
</clipPath>
</defs>
</svg>
